<svg width="12" height="12" viewBox="0 0 12 12" fill="none" xmlns="http://www.w3.org/2000/svg">
<path d="M3.57495 10.55C3.44995 10.425 3.38745 10.277 3.38745 10.106C3.38745 9.93533 3.44995 9.7875 3.57495 9.6625L7.23745 6L3.56245 2.325C3.44578 2.20833 3.38745 2.0625 3.38745 1.8875C3.38745 1.7125 3.44995 1.5625 3.57495 1.4375C3.69995 1.3125 3.84795 1.25 4.01895 1.25C4.18962 1.25 4.33745 1.3125 4.46245 1.4375L8.66245 5.65C8.71245 5.7 8.74795 5.75417 8.76895 5.8125C8.78962 5.87083 8.79995 5.93333 8.79995 6C8.79995 6.06667 8.78962 6.12917 8.76895 6.1875C8.74795 6.24583 8.71245 6.3 8.66245 6.35L4.44995 10.5625C4.33328 10.6792 4.18962 10.7375 4.01895 10.7375C3.84795 10.7375 3.69995 10.675 3.57495 10.55Z" fill="white"/>
</svg>
