<svg width="15" height="18" viewBox="0 0 15 18" fill="none" xmlns="http://www.w3.org/2000/svg">
<path d="M13 9V4.31175C13 4.25255 12.9884 4.19392 12.9658 4.13922C12.9431 4.08453 12.9099 4.03484 12.868 3.993L10.507 1.632C10.4227 1.54758 10.3083 1.50011 10.189 1.5H1.45C1.33065 1.5 1.21619 1.54741 1.1318 1.6318C1.04741 1.71619 1 1.83065 1 1.95V16.05C1 16.1693 1.04741 16.2838 1.1318 16.3682C1.21619 16.4526 1.33065 16.5 1.45 16.5H6.25M4 7.5H10M4 4.5H7M4 10.5H6.25M11.4655 12.705L12.2155 11.955C12.2936 11.8769 12.3863 11.8149 12.4883 11.7726C12.5904 11.7303 12.6998 11.7085 12.8102 11.7085C12.9207 11.7085 13.0301 11.7303 13.1322 11.7726C13.2342 11.8149 13.3269 11.8769 13.405 11.955C13.5626 12.1127 13.6511 12.3265 13.6511 12.5494C13.6511 12.7723 13.5626 12.9861 13.405 13.1437L12.655 13.8937M11.4655 12.7042L9.22225 14.9475C9.11009 15.06 9.03655 15.2052 9.01225 15.3622L8.82925 16.53L9.997 16.3478C10.154 16.3234 10.2992 16.2499 10.4117 16.1378L12.6542 13.8937M11.4655 12.7042L12.655 13.8937" stroke="white" stroke-width="1.125" stroke-linecap="round" stroke-linejoin="round"/>
<path d="M10 1.5V4.05C10 4.16935 10.0474 4.28381 10.1318 4.3682C10.2162 4.45259 10.3307 4.5 10.45 4.5H13" stroke="white" stroke-width="1.125" stroke-linecap="round" stroke-linejoin="round"/>
</svg>
