<svg width="16" height="16" viewBox="0 0 16 16" fill="none" xmlns="http://www.w3.org/2000/svg">
<path d="M6.00004 13.3333H4.00004C3.2928 13.3333 2.61452 13.0524 2.11442 12.5523C1.61433 12.0522 1.33337 11.3739 1.33337 10.6666V4.66665C1.33337 3.9594 1.61433 3.28113 2.11442 2.78103C2.61452 2.28093 3.2928 1.99998 4.00004 1.99998H11.3334C12.0406 1.99998 12.7189 2.28093 13.219 2.78103C13.7191 3.28113 14 3.9594 14 4.66665V6.66665M5.33337 1.33331V2.66665M10 1.33331V2.66665M1.33337 5.33331H14M12.3334 10.4286L11.3334 11.4286" stroke="white" stroke-width="1.33333" stroke-linecap="round" stroke-linejoin="round"/>
<path d="M11.3333 14.6667C13.1743 14.6667 14.6667 13.1743 14.6667 11.3333C14.6667 9.49238 13.1743 8 11.3333 8C9.49238 8 8 9.49238 8 11.3333C8 13.1743 9.49238 14.6667 11.3333 14.6667Z" stroke="white" stroke-width="1.33333" stroke-linecap="round" stroke-linejoin="round"/>
</svg>
