<svg width="15" height="15" viewBox="0 0 15 15" fill="none" xmlns="http://www.w3.org/2000/svg">
<path d="M10.9375 0.25C11.6834 0.25 12.3988 0.546316 12.9262 1.07376C13.4537 1.60121 13.75 2.31658 13.75 3.0625V5.03912C12.6426 4.12303 11.2497 3.62281 9.8125 3.625H12.625V3.0625C12.625 2.61495 12.4472 2.18572 12.1307 1.86926C11.8143 1.55279 11.3851 1.375 10.9375 1.375H3.0625C2.61495 1.375 2.18572 1.55279 1.86926 1.86926C1.55279 2.18572 1.375 2.61495 1.375 3.0625V3.625H9.8125C8.48837 3.625 7.261 4.04125 6.25412 4.75H1.375V10.9375C1.375 11.3851 1.55279 11.8143 1.86926 12.1307C2.18572 12.4472 2.61495 12.625 3.0625 12.625H4.3C4.50588 13.0278 4.7545 13.4046 5.03912 13.75H3.0625C2.31658 13.75 1.60121 13.4537 1.07376 12.9262C0.546316 12.3988 0.25 11.6834 0.25 10.9375V3.0625C0.25 2.31658 0.546316 1.60121 1.07376 1.07376C1.60121 0.546316 2.31658 0.25 3.0625 0.25H10.9375ZM14.875 9.8125C14.875 10.4773 14.7441 11.1356 14.4896 11.7498C14.2352 12.364 13.8623 12.9221 13.3922 13.3922C12.9221 13.8623 12.364 14.2352 11.7498 14.4896C11.1356 14.7441 10.4773 14.875 9.8125 14.875C9.14768 14.875 8.48938 14.7441 7.87516 14.4896C7.26095 14.2352 6.70287 13.8623 6.23277 13.3922C5.76268 12.9221 5.38977 12.364 5.13536 11.7498C4.88095 11.1356 4.75 10.4773 4.75 9.8125C4.75 8.46984 5.28337 7.18217 6.23277 6.23277C7.18217 5.28337 8.46984 4.75 9.8125 4.75C11.1552 4.75 12.4428 5.28337 13.3922 6.23277C14.3416 7.18217 14.875 8.46984 14.875 9.8125ZM11.8983 8.52325C11.9505 8.47095 11.992 8.40886 12.0203 8.34053C12.0486 8.2722 12.0632 8.19896 12.0632 8.125C12.0632 8.05104 12.0486 7.9778 12.0203 7.90947C11.992 7.84114 11.9505 7.77905 11.8983 7.72675C11.846 7.67445 11.7839 7.63297 11.7155 7.60466C11.6472 7.57636 11.574 7.56179 11.5 7.56179C11.426 7.56179 11.3528 7.57636 11.2845 7.60466C11.2161 7.63297 11.154 7.67445 11.1017 7.72675L9.8125 9.01713L8.52325 7.72675C8.41763 7.62113 8.27437 7.56179 8.125 7.56179C7.97563 7.56179 7.83237 7.62113 7.72675 7.72675C7.62113 7.83237 7.56179 7.97563 7.56179 8.125C7.56179 8.27437 7.62113 8.41763 7.72675 8.52325L9.01713 9.8125L7.72675 11.1017C7.62113 11.2074 7.56179 11.3506 7.56179 11.5C7.56179 11.6494 7.62113 11.7926 7.72675 11.8983C7.83237 12.0039 7.97563 12.0632 8.125 12.0632C8.27437 12.0632 8.41763 12.0039 8.52325 11.8983L9.8125 10.6079L11.1017 11.8983C11.2074 12.0039 11.3506 12.0632 11.5 12.0632C11.6494 12.0632 11.7926 12.0039 11.8983 11.8983C12.0039 11.7926 12.0632 11.6494 12.0632 11.5C12.0632 11.3506 12.0039 11.2074 11.8983 11.1017L10.6079 9.8125L11.8983 8.52325Z" fill="white"/>
</svg>
