<svg width="14" height="14" viewBox="0 0 14 14" fill="none" xmlns="http://www.w3.org/2000/svg">
<path d="M7.75 6.7L9.625 8.575C9.7625 8.7125 9.83125 8.8875 9.83125 9.1C9.83125 9.3125 9.7625 9.4875 9.625 9.625C9.4875 9.7625 9.3125 9.83125 9.1 9.83125C8.8875 9.83125 8.7125 9.7625 8.575 9.625L6.475 7.525C6.4 7.45 6.34375 7.3655 6.30625 7.2715C6.26875 7.178 6.25 7.08125 6.25 6.98125V4C6.25 3.7875 6.322 3.60925 6.466 3.46525C6.6095 3.32175 6.7875 3.25 7 3.25C7.2125 3.25 7.39075 3.32175 7.53475 3.46525C7.67825 3.60925 7.75 3.7875 7.75 4V6.7ZM7 13.75C5.4875 13.75 4.13125 13.303 2.93125 12.409C1.73125 11.5155 0.925 10.35 0.5125 8.9125C0.45 8.6875 0.472 8.475 0.5785 8.275C0.6845 8.075 0.85 7.95 1.075 7.9C1.2875 7.85 1.47825 7.89675 1.64725 8.04025C1.81575 8.18425 1.93125 8.3625 1.99375 8.575C2.31875 9.675 2.947 10.5625 3.8785 11.2375C4.8095 11.9125 5.85 12.25 7 12.25C8.4625 12.25 9.703 11.7405 10.7215 10.7215C11.7405 9.703 12.25 8.4625 12.25 7C12.25 5.5375 11.7405 4.29675 10.7215 3.27775C9.703 2.25925 8.4625 1.75 7 1.75C6.1375 1.75 5.33125 1.95 4.58125 2.35C3.83125 2.75 3.2 3.3 2.6875 4H4C4.2125 4 4.39075 4.07175 4.53475 4.21525C4.67825 4.35925 4.75 4.5375 4.75 4.75C4.75 4.9625 4.67825 5.1405 4.53475 5.284C4.39075 5.428 4.2125 5.5 4 5.5H1C0.7875 5.5 0.6095 5.428 0.466 5.284C0.322 5.1405 0.25 4.9625 0.25 4.75V1.75C0.25 1.5375 0.322 1.35925 0.466 1.21525C0.6095 1.07175 0.7875 1 1 1C1.2125 1 1.39075 1.07175 1.53475 1.21525C1.67825 1.35925 1.75 1.5375 1.75 1.75V2.7625C2.3875 1.9625 3.16575 1.34375 4.08475 0.90625C5.00325 0.46875 5.975 0.25 7 0.25C7.9375 0.25 8.81575 0.428 9.63475 0.784C10.4532 1.1405 11.1658 1.62175 11.7723 2.22775C12.3783 2.83425 12.8595 3.54675 13.216 4.36525C13.572 5.18425 13.75 6.0625 13.75 7C13.75 7.9375 13.572 8.8155 13.216 9.634C12.8595 10.453 12.3783 11.1655 11.7723 11.7715C11.1658 12.378 10.4532 12.8595 9.63475 13.216C8.81575 13.572 7.9375 13.75 7 13.75Z" fill="white"/>
</svg>
