<svg width="18" height="18" viewBox="0 0 18 18" fill="none" xmlns="http://www.w3.org/2000/svg">
<path d="M11.6745 8.26575C12.4581 7.8005 13.1074 7.13973 13.5588 6.34814C14.0103 5.55655 14.2485 4.66128 14.25 3.75V3H15V1.5H3V3H3.75V3.75C3.75152 4.66128 3.98968 5.55655 4.44115 6.34814C4.89262 7.13973 5.54193 7.8005 6.3255 8.26575C6.591 8.42175 6.75 8.6745 6.75 8.94075V9.05925C6.75 9.32475 6.591 9.57675 6.3255 9.73425C5.54193 10.1995 4.89262 10.8603 4.44115 11.6519C3.98968 12.4434 3.75152 13.3387 3.75 14.25V15H3V16.5H15V15H14.25V14.25C14.2486 13.3389 14.0105 12.4438 13.5592 11.6523C13.1078 10.8608 12.4587 10.2002 11.6753 9.735C11.409 9.5775 11.25 9.32475 11.25 9.05925V8.94075C11.25 8.6745 11.409 8.42175 11.6745 8.26575ZM10.9132 11.0265C11.4723 11.3588 11.9354 11.8306 12.2574 12.3956C12.5794 12.9607 12.7491 13.5997 12.75 14.25V15H5.25V14.25C5.25098 13.5995 5.42083 12.9604 5.74292 12.3952C6.06502 11.83 6.52832 11.3581 7.0875 11.0258C7.81575 10.596 8.25 9.86025 8.25 9.05925V8.94075C8.25 8.139 7.815 7.4025 7.08675 6.9735C6.52772 6.64119 6.06455 6.16942 5.74259 5.60436C5.42062 5.03931 5.25089 4.40034 5.25 3.75V3H12.75V3.75C12.75 5.07 12.0465 6.3045 10.9132 6.9735C10.185 7.4025 9.75 8.139 9.75 8.94075V9.05925C9.75 9.86025 10.1842 10.596 10.9132 11.0265Z" fill="white"/>
</svg>
