<svg width="16" height="18" viewBox="0 0 16 18" fill="none" xmlns="http://www.w3.org/2000/svg">
<path d="M13 9V4.31175C13 4.25255 12.9884 4.19392 12.9658 4.13922C12.9431 4.08453 12.9099 4.03484 12.868 3.993L10.507 1.632C10.4227 1.54758 10.3083 1.50011 10.189 1.5H1.45C1.33065 1.5 1.21619 1.54741 1.1318 1.6318C1.04741 1.71619 1 1.83065 1 1.95V16.05C1 16.1693 1.04741 16.2838 1.1318 16.3682C1.21619 16.4526 1.33065 16.5 1.45 16.5H6.25M4 7.5H10M4 4.5H7M4 10.5H6.25M13.375 15.375L14.5 16.5" stroke="white" stroke-width="1.125" stroke-linecap="round" stroke-linejoin="round"/>
<path d="M10 1.5V4.05C10 4.16935 10.0474 4.28381 10.1318 4.3682C10.2162 4.45259 10.3307 4.5 10.45 4.5H13M9.25 13.5C9.25 14.0967 9.48705 14.669 9.90901 15.091C10.331 15.5129 10.9033 15.75 11.5 15.75C12.0967 15.75 12.669 15.5129 13.091 15.091C13.5129 14.669 13.75 14.0967 13.75 13.5C13.75 12.9033 13.5129 12.331 13.091 11.909C12.669 11.4871 12.0967 11.25 11.5 11.25C10.9033 11.25 10.331 11.4871 9.90901 11.909C9.48705 12.331 9.25 12.9033 9.25 13.5Z" stroke="white" stroke-width="1.125" stroke-linecap="round" stroke-linejoin="round"/>
</svg>
