<svg width="15" height="18" viewBox="0 0 15 18" fill="none" xmlns="http://www.w3.org/2000/svg">
<path d="M7.5 10.6667C7.26389 10.6667 7.06611 10.5867 6.90667 10.4267C6.74667 10.2672 6.66667 10.0695 6.66667 9.83335C6.66667 9.59724 6.74667 9.39919 6.90667 9.23919C7.06611 9.07974 7.26389 9.00002 7.5 9.00002C7.73611 9.00002 7.93417 9.07974 8.09417 9.23919C8.25361 9.39919 8.33333 9.59724 8.33333 9.83335C8.33333 10.0695 8.25361 10.2672 8.09417 10.4267C7.93417 10.5867 7.73611 10.6667 7.5 10.6667ZM4.16667 10.6667C3.93056 10.6667 3.7325 10.5867 3.5725 10.4267C3.41306 10.2672 3.33333 10.0695 3.33333 9.83335C3.33333 9.59724 3.41306 9.39919 3.5725 9.23919C3.7325 9.07974 3.93056 9.00002 4.16667 9.00002C4.40278 9.00002 4.60083 9.07974 4.76083 9.23919C4.92028 9.39919 5 9.59724 5 9.83335C5 10.0695 4.92028 10.2672 4.76083 10.4267C4.60083 10.5867 4.40278 10.6667 4.16667 10.6667ZM10.8333 10.6667C10.5972 10.6667 10.3994 10.5867 10.24 10.4267C10.08 10.2672 10 10.0695 10 9.83335C10 9.59724 10.08 9.39919 10.24 9.23919C10.3994 9.07974 10.5972 9.00002 10.8333 9.00002C11.0694 9.00002 11.2672 9.07974 11.4267 9.23919C11.5867 9.39919 11.6667 9.59724 11.6667 9.83335C11.6667 10.0695 11.5867 10.2672 11.4267 10.4267C11.2672 10.5867 11.0694 10.6667 10.8333 10.6667ZM7.5 14C7.26389 14 7.06611 13.92 6.90667 13.76C6.74667 13.6006 6.66667 13.4028 6.66667 13.1667C6.66667 12.9306 6.74667 12.7328 6.90667 12.5734C7.06611 12.4134 7.26389 12.3334 7.5 12.3334C7.73611 12.3334 7.93417 12.4134 8.09417 12.5734C8.25361 12.7328 8.33333 12.9306 8.33333 13.1667C8.33333 13.4028 8.25361 13.6006 8.09417 13.76C7.93417 13.92 7.73611 14 7.5 14ZM4.16667 14C3.93056 14 3.7325 13.92 3.5725 13.76C3.41306 13.6006 3.33333 13.4028 3.33333 13.1667C3.33333 12.9306 3.41306 12.7328 3.5725 12.5734C3.7325 12.4134 3.93056 12.3334 4.16667 12.3334C4.40278 12.3334 4.60083 12.4134 4.76083 12.5734C4.92028 12.7328 5 12.9306 5 13.1667C5 13.4028 4.92028 13.6006 4.76083 13.76C4.60083 13.92 4.40278 14 4.16667 14ZM10.8333 14C10.5972 14 10.3994 13.92 10.24 13.76C10.08 13.6006 10 13.4028 10 13.1667C10 12.9306 10.08 12.7328 10.24 12.5734C10.3994 12.4134 10.5972 12.3334 10.8333 12.3334C11.0694 12.3334 11.2672 12.4134 11.4267 12.5734C11.5867 12.7328 11.6667 12.9306 11.6667 13.1667C11.6667 13.4028 11.5867 13.6006 11.4267 13.76C11.2672 13.92 11.0694 14 10.8333 14ZM1.66667 17.3334C1.20833 17.3334 0.815833 17.1703 0.489167 16.8442C0.163055 16.5175 0 16.125 0 15.6667V4.00002C0 3.54169 0.163055 3.14946 0.489167 2.82335C0.815833 2.49669 1.20833 2.33335 1.66667 2.33335H2.5V0.666687H4.16667V2.33335H10.8333V0.666687H12.5V2.33335H13.3333C13.7917 2.33335 14.1842 2.49669 14.5108 2.82335C14.8369 3.14946 15 3.54169 15 4.00002V15.6667C15 16.125 14.8369 16.5175 14.5108 16.8442C14.1842 17.1703 13.7917 17.3334 13.3333 17.3334H1.66667ZM1.66667 15.6667H13.3333V7.33335H1.66667V15.6667Z" fill="#363738"/>
</svg>
