<svg width="18" height="18" viewBox="0 0 18 18" fill="none" xmlns="http://www.w3.org/2000/svg">
<path d="M3.75 7.125L5.625 10.5H1.875L3.75 7.125ZM2.25 3H5.25V6H2.25V3ZM3.75 15C4.14782 15 4.52936 14.842 4.81066 14.5607C5.09196 14.2794 5.25 13.8978 5.25 13.5C5.25 13.1022 5.09196 12.7206 4.81066 12.4393C4.52936 12.158 4.14782 12 3.75 12C3.35218 12 2.97064 12.158 2.68934 12.4393C2.40804 12.7206 2.25 13.1022 2.25 13.5C2.25 13.8978 2.40804 14.2794 2.68934 14.5607C2.97064 14.842 3.35218 15 3.75 15ZM6.75 3.75V5.25H15.75V3.75H6.75ZM6.75 14.25H15.75V12.75H6.75V14.25ZM6.75 9.75H15.75V8.25H6.75V9.75Z" fill="#545454"/>
</svg>
