<svg width="16" height="16" viewBox="0 0 16 16" fill="none" xmlns="http://www.w3.org/2000/svg">
<path d="M14.7852 8.59766L11.832 11.5508C11.7535 11.6291 11.6603 11.6911 11.5577 11.7333C11.4551 11.7756 11.3453 11.7971 11.2344 11.7969C11.0107 11.7959 10.7962 11.7076 10.6367 11.5508C10.5581 11.4724 10.4956 11.3792 10.4531 11.2767C10.4105 11.1741 10.3886 11.0642 10.3886 10.9531C10.3886 10.8421 10.4105 10.7321 10.4531 10.6296C10.4956 10.527 10.5581 10.4339 10.6367 10.3555L12.1484 8.84375H6.3125C6.08872 8.84375 5.87411 8.75485 5.71588 8.59662C5.55764 8.43839 5.46875 8.22378 5.46875 8C5.46875 7.77622 5.55764 7.56161 5.71588 7.40338C5.87411 7.24514 6.08872 7.15625 6.3125 7.15625H12.1484L10.6367 5.64453C10.4782 5.48602 10.3892 5.27104 10.3892 5.04688C10.3892 4.82271 10.4782 4.60773 10.6367 4.44922C10.7952 4.29071 11.0102 4.20166 11.2344 4.20166C11.4585 4.20166 11.6735 4.29071 11.832 4.44922L14.7852 7.40234C14.8638 7.48073 14.9262 7.57387 14.9688 7.67643C15.0114 7.77899 15.0333 7.88895 15.0333 8C15.0333 8.11105 15.0114 8.22101 14.9688 8.32357C14.9262 8.42613 14.8638 8.51927 14.7852 8.59766ZM6.3125 13.3438H2.65625V2.65625H6.3125C6.53628 2.65625 6.75089 2.56736 6.90912 2.40912C7.06736 2.25089 7.15625 2.03628 7.15625 1.8125C7.15625 1.58872 7.06736 1.37411 6.90912 1.21588C6.75089 1.05764 6.53628 0.96875 6.3125 0.96875H2.375C2.00261 0.970598 1.646 1.11935 1.38267 1.38267C1.11935 1.646 0.970598 2.00261 0.96875 2.375V13.625C0.970598 13.9974 1.11935 14.354 1.38267 14.6173C1.646 14.8807 2.00261 15.0294 2.375 15.0312H6.3125C6.53628 15.0312 6.75089 14.9424 6.90912 14.7841C7.06736 14.6259 7.15625 14.4113 7.15625 14.1875C7.15625 13.9637 7.06736 13.7491 6.90912 13.5909C6.75089 13.4326 6.53628 13.3438 6.3125 13.3438Z" fill="#363738"/>
</svg>
