<svg width="18" height="18" viewBox="0 0 18 18" fill="none" xmlns="http://www.w3.org/2000/svg">
<path d="M16.5 10.5H15V5.4285L9.054 10.7535L3 5.412V14.25H10.5V15.75H2.25C2.05109 15.75 1.86032 15.671 1.71967 15.5303C1.57902 15.3897 1.5 15.1989 1.5 15V3C1.5 2.80109 1.57902 2.61032 1.71967 2.46967C1.86032 2.32902 2.05109 2.25 2.25 2.25H15.75C15.9489 2.25 16.1397 2.32902 16.2803 2.46967C16.421 2.61032 16.5 2.80109 16.5 3V10.5ZM3.38325 3.75L9.04575 8.7465L14.6265 3.75H3.38325ZM14.25 16.5L11.598 13.848L12.6593 12.7875L14.25 14.379L16.902 11.727L17.9625 12.7875L14.25 16.5Z" fill="white"/>
</svg>
