<svg width="18" height="18" viewBox="0 0 18 18" fill="none" xmlns="http://www.w3.org/2000/svg">
<path d="M9 10.5C9.4125 10.5 9.76575 10.353 10.0598 10.059C10.3533 9.7655 10.5 9.4125 10.5 9C10.5 8.5875 10.3533 8.23425 10.0598 7.94025C9.76575 7.64675 9.4125 7.5 9 7.5C8.5875 7.5 8.2345 7.64675 7.941 7.94025C7.647 8.23425 7.5 8.5875 7.5 9C7.5 9.4125 7.647 9.7655 7.941 10.059C8.2345 10.353 8.5875 10.5 9 10.5ZM6 13.5H12V13.0688C12 12.7688 11.9187 12.4938 11.7563 12.2438C11.5938 11.9938 11.3687 11.8063 11.0812 11.6813C10.7562 11.5438 10.422 11.4375 10.0785 11.3625C9.7345 11.2875 9.375 11.25 9 11.25C8.625 11.25 8.2655 11.2875 7.9215 11.3625C7.578 11.4375 7.24375 11.5438 6.91875 11.6813C6.63125 11.8063 6.40625 11.9938 6.24375 12.2438C6.08125 12.4938 6 12.7688 6 13.0688V13.5ZM13.5 16.5H4.5C4.0875 16.5 3.7345 16.3533 3.441 16.0598C3.147 15.7658 3 15.4125 3 15V3C3 2.5875 3.147 2.23425 3.441 1.94025C3.7345 1.64675 4.0875 1.5 4.5 1.5H9.88125C10.0813 1.5 10.272 1.5375 10.4535 1.6125C10.6345 1.6875 10.7937 1.79375 10.9312 1.93125L14.5687 5.56875C14.7062 5.70625 14.8125 5.8655 14.8875 6.0465C14.9625 6.228 15 6.41875 15 6.61875V15C15 15.4125 14.8533 15.7658 14.5597 16.0598C14.2657 16.3533 13.9125 16.5 13.5 16.5ZM13.5 15V6.6375L9.8625 3H4.5V15H13.5ZM4.5 15V3V15Z" fill="white"/>
</svg>
