<svg width="16" height="16" viewBox="0 0 16 16" fill="none" xmlns="http://www.w3.org/2000/svg">
<path d="M13.3335 2H2.66683C1.9315 2 1.3335 2.598 1.3335 3.33333V12.6667C1.3335 13.402 1.9315 14 2.66683 14H13.3335C14.0688 14 14.6668 13.402 14.6668 12.6667V3.33333C14.6668 2.598 14.0688 2 13.3335 2ZM2.66683 12.6667V4.66667H13.3335L13.3348 12.6667H2.66683Z" fill="white"/>
<path d="M6.19545 6.19531L3.72412 8.66665L6.19545 11.138L7.13812 10.1953L5.60945 8.66665L7.13812 7.13798L6.19545 6.19531ZM9.80479 6.19531L8.86212 7.13798L10.3908 8.66665L8.86212 10.1953L9.80479 11.138L12.2761 8.66665L9.80479 6.19531Z" fill="white"/>
</svg>
