<svg width="16" height="16" viewBox="0 0 16 16" fill="none" xmlns="http://www.w3.org/2000/svg">
<path d="M15.5516 13.7656C14.5654 12.0652 13.0344 10.7473 11.2063 10.025C12.1035 9.35206 12.7663 8.41388 13.1007 7.34333C13.4351 6.27279 13.4242 5.12416 13.0695 4.06016C12.7149 2.99615 12.0344 2.07071 11.1245 1.41492C10.2147 0.759137 9.12156 0.40625 8 0.40625C6.87844 0.40625 5.78531 0.759137 4.87546 1.41492C3.9656 2.07071 3.28514 2.99615 2.93048 4.06016C2.57581 5.12416 2.56491 6.27279 2.89932 7.34333C3.23373 8.41388 3.8965 9.35206 4.79375 10.025C2.96561 10.7473 1.43461 12.0652 0.448439 13.7656C0.336551 13.9596 0.306287 14.19 0.364307 14.4063C0.422326 14.6225 0.563875 14.8069 0.757814 14.9187C0.951754 15.0306 1.1822 15.0609 1.39845 15.0029C1.6147 14.9449 1.79905 14.8033 1.91094 14.6094C2.52808 13.5406 3.41568 12.653 4.48453 12.036C5.55338 11.4189 6.76582 11.0941 8 11.0941C9.23418 11.0941 10.4466 11.4189 11.5155 12.036C12.5843 12.653 13.4719 13.5406 14.0891 14.6094C14.1637 14.7372 14.2704 14.8434 14.3987 14.9174C14.5269 14.9914 14.6723 15.0306 14.8203 15.0312C14.9685 15.0324 15.1143 14.9936 15.2422 14.9187C15.3383 14.8634 15.4225 14.7896 15.49 14.7017C15.5576 14.6138 15.6072 14.5134 15.6359 14.4063C15.6646 14.2992 15.672 14.1875 15.6575 14.0776C15.643 13.9676 15.607 13.8616 15.5516 13.7656ZM4.34375 5.75C4.34375 5.02686 4.55819 4.31996 4.95994 3.7187C5.36169 3.11743 5.93272 2.6488 6.60082 2.37207C7.26891 2.09533 8.00406 2.02293 8.7133 2.164C9.42254 2.30508 10.074 2.65331 10.5854 3.16464C11.0967 3.67598 11.4449 4.32746 11.586 5.0367C11.7271 5.74594 11.6547 6.48109 11.3779 7.14919C11.1012 7.81728 10.6326 8.38831 10.0313 8.79006C9.43004 9.19181 8.72314 9.40625 8 9.40625C7.0303 9.40625 6.10032 9.02104 5.41464 8.33536C4.72896 7.64968 4.34375 6.7197 4.34375 5.75Z" fill="#363738"/>
</svg>
