<svg width="16" height="16" viewBox="0 0 16 16" fill="none" xmlns="http://www.w3.org/2000/svg">
<path d="M14.7124 13.125C13.8358 11.6135 12.4749 10.442 10.8499 9.8C11.6475 9.20184 12.2366 8.36789 12.5339 7.4163C12.8311 6.4647 12.8214 5.4437 12.5062 4.49792C12.1909 3.55214 11.5861 2.72952 10.7773 2.1466C9.96854 1.56368 8.99687 1.25 7.99993 1.25C7.00299 1.25 6.03132 1.56368 5.22256 2.1466C4.4138 2.72952 3.80895 3.55214 3.49368 4.49792C3.17842 5.4437 3.16874 6.4647 3.46599 7.4163C3.76325 8.36789 4.35238 9.20184 5.14993 9.8C3.52491 10.442 2.16403 11.6135 1.28743 13.125C1.18797 13.2974 1.16107 13.5022 1.21265 13.6945C1.26422 13.8867 1.39004 14.0505 1.56243 14.15C1.73482 14.2495 1.93966 14.2764 2.13188 14.2248C2.32411 14.1732 2.48797 14.0474 2.58743 13.875C3.136 12.925 3.92498 12.136 4.87507 11.5875C5.82515 11.039 6.90288 10.7503 7.99993 10.7503C9.09698 10.7503 10.1747 11.039 11.1248 11.5875C12.0749 12.136 12.8639 12.925 13.4124 13.875C13.4788 13.9887 13.5736 14.083 13.6876 14.1488C13.8016 14.2146 13.9308 14.2495 14.0624 14.25C14.1942 14.2511 14.3237 14.2165 14.4374 14.15C14.5228 14.1008 14.5977 14.0352 14.6577 13.9571C14.7178 13.8789 14.7618 13.7897 14.7874 13.6945C14.8129 13.5993 14.8194 13.5 14.8066 13.4023C14.7937 13.3046 14.7617 13.2103 14.7124 13.125ZM4.74993 6C4.74993 5.35721 4.94054 4.72886 5.29765 4.1944C5.65477 3.65994 6.16235 3.24338 6.75621 2.99739C7.35007 2.75141 8.00354 2.68705 8.63397 2.81245C9.26441 2.93785 9.84351 3.24738 10.298 3.7019C10.7525 4.15642 11.0621 4.73552 11.1875 5.36596C11.3129 5.99639 11.2485 6.64986 11.0025 7.24372C10.7566 7.83758 10.34 8.34516 9.80553 8.70228C9.27107 9.05939 8.64272 9.25 7.99993 9.25C7.13798 9.25 6.31133 8.90759 5.70183 8.2981C5.09234 7.6886 4.74993 6.86195 4.74993 6Z" fill="white"/>
</svg>
