<svg width="16" height="17" viewBox="0 0 16 17" fill="none" xmlns="http://www.w3.org/2000/svg">
<path fill-rule="evenodd" clip-rule="evenodd" d="M7 1.20833C7.28849 0.991963 7.63938 0.875 8 0.875C8.36062 0.875 8.71151 0.991963 9 1.20833L14.8333 5.58333C15.0403 5.73858 15.2083 5.93988 15.324 6.17131C15.4398 6.40274 15.5 6.65792 15.5 6.91667V14.8333C15.5 15.2754 15.3244 15.6993 15.0118 16.0118C14.6993 16.3244 14.2754 16.5 13.8333 16.5H9.75C9.50688 16.5 9.27373 16.4034 9.10182 16.2315C8.92991 16.0596 8.83333 15.8264 8.83333 15.5833V10.6667C8.83333 10.4457 8.74554 10.2337 8.58926 10.0774C8.43297 9.92113 8.22101 9.83333 8 9.83333C7.77899 9.83333 7.56702 9.92113 7.41074 10.0774C7.25446 10.2337 7.16667 10.4457 7.16667 10.6667V15.5833C7.16667 15.7037 7.14296 15.8229 7.09689 15.9341C7.05082 16.0453 6.9833 16.1464 6.89818 16.2315C6.81306 16.3166 6.71201 16.3842 6.60079 16.4302C6.48958 16.4763 6.37038 16.5 6.25 16.5H2.16667C1.72464 16.5 1.30072 16.3244 0.988155 16.0118C0.675595 15.6993 0.5 15.2754 0.5 14.8333V6.91667C0.5 6.65792 0.560242 6.40274 0.675955 6.17131C0.791668 5.93988 0.959673 5.73858 1.16667 5.58333L7 1.20833ZM8 2.54167L2.16667 6.91667V14.8333H5.5V10.6667C5.5 10.0036 5.76339 9.36774 6.23223 8.8989C6.70107 8.43006 7.33696 8.16667 8 8.16667C8.66304 8.16667 9.29893 8.43006 9.76777 8.8989C10.2366 9.36774 10.5 10.0036 10.5 10.6667V14.8333H13.8333V6.91667L8 2.54167Z" fill="white"/>
</svg>
