<svg width="18" height="18" viewBox="0 0 18 18" fill="none" xmlns="http://www.w3.org/2000/svg">
<path d="M14.0837 2.5C14.3095 2.49988 14.5275 2.58317 14.6958 2.73389C14.864 2.8846 14.9707 3.09213 14.9953 3.31667L15.0003 3.41667V5.83333H15.8337C16.4713 5.8333 17.0849 6.07694 17.5489 6.5144C18.0128 6.95187 18.2921 7.55009 18.3295 8.18667L18.3337 8.33333V14.1667C18.3338 14.5871 18.175 14.9921 17.8891 15.3005C17.6032 15.6088 17.2113 15.7976 16.792 15.8292L16.667 15.8333H15.0003V17.4167C15.0004 17.6425 14.9172 17.8605 14.7664 18.0288C14.6157 18.197 14.4082 18.3037 14.1837 18.3283L14.0837 18.3333H5.91699C5.69111 18.3334 5.47314 18.2502 5.30489 18.0994C5.13664 17.9487 5.02997 17.7412 5.00533 17.5167L5.00033 17.4167V15.8333H3.33366C2.91318 15.8335 2.50819 15.6747 2.19987 15.3888C1.89155 15.1028 1.70269 14.711 1.67116 14.2917L1.66699 14.1667V8.33333C1.66696 7.69566 1.9106 7.08207 2.34806 6.61812C2.78553 6.15416 3.38375 5.87491 4.02033 5.8375L4.16699 5.83333H5.00033V3.41667C5.00021 3.19079 5.0835 2.97281 5.23421 2.80457C5.38493 2.63632 5.59246 2.52964 5.81699 2.505L5.91699 2.5H14.0837ZM13.3337 13.3333H6.66699V16.6667H13.3337V13.3333ZM15.8337 7.5H4.16699C3.96288 7.50003 3.76588 7.57496 3.61335 7.7106C3.46082 7.84623 3.36337 8.03312 3.33949 8.23583L3.33366 8.33333V14.1667H5.00033V12.5833C5.00021 12.3575 5.0835 12.1395 5.23421 11.9712C5.38493 11.803 5.59246 11.6963 5.81699 11.6717L5.91699 11.6667H14.0837C14.3095 11.6666 14.5275 11.7498 14.6958 11.9006C14.864 12.0513 14.9707 12.2588 14.9953 12.4833L15.0003 12.5833V14.1667H16.667V8.33333C16.667 8.11232 16.5792 7.90036 16.4229 7.74408C16.2666 7.5878 16.0547 7.5 15.8337 7.5ZM14.167 8.33333C14.3794 8.33357 14.5837 8.4149 14.7381 8.56071C14.8926 8.70651 14.9855 8.90579 14.998 9.11783C15.0104 9.32986 14.9414 9.53865 14.8051 9.70153C14.6688 9.8644 14.4754 9.96908 14.2645 9.99417L14.167 10H12.5003C12.2879 9.99976 12.0836 9.91843 11.9292 9.77263C11.7747 9.62682 11.6818 9.42754 11.6693 9.2155C11.6569 9.00347 11.7259 8.79468 11.8622 8.63181C11.9985 8.46893 12.1919 8.36425 12.4028 8.33917L12.5003 8.33333H14.167ZM13.3337 4.16667H6.66699V5.83333H13.3337V4.16667Z" fill="white"/>
</svg>
