<svg width="70" height="71" viewBox="0 0 70 71" fill="none" xmlns="http://www.w3.org/2000/svg">
<rect width="70" height="70.1818" rx="35" fill="#EFF1F4"/>
<path d="M39.0909 43.2127V49.4091C39.0909 49.9516 38.8754 50.4718 38.4918 50.8554C38.1082 51.239 37.5879 51.4545 37.0455 51.4545H24.7727C24.2302 51.4545 23.71 51.239 23.3264 50.8554C22.9428 50.4718 22.7273 49.9516 22.7273 49.4091V20.7727C22.7273 20.2302 22.9428 19.71 23.3264 19.3264C23.71 18.9428 24.2302 18.7273 24.7727 18.7273H26.1555C27.0116 17.6912 28.0022 16.774 29.1009 16H24.7727C23.5069 16 22.293 16.5028 21.3979 17.3979C20.5028 18.293 20 19.5069 20 20.7727V49.4091C20 52.0436 22.1382 54.1818 24.7727 54.1818H37.0455C38.3113 54.1818 39.5252 53.679 40.4203 52.7839C41.3153 51.8889 41.8182 50.6749 41.8182 49.4091V42.7082C40.9267 42.9604 40.0137 43.1293 39.0909 43.2127ZM26.8182 47.3636C26.8182 47.002 26.9619 46.6551 27.2176 46.3994C27.4733 46.1437 27.8202 46 28.1818 46H33.6364C33.998 46 34.3449 46.1437 34.6006 46.3994C34.8563 46.6551 35 47.002 35 47.3636C35 47.7253 34.8563 48.0721 34.6006 48.3279C34.3449 48.5836 33.998 48.7273 33.6364 48.7273H28.1818C27.8202 48.7273 27.4733 48.5836 27.2176 48.3279C26.9619 48.0721 26.8182 47.7253 26.8182 47.3636ZM37.7273 40.5455C40.9822 40.5455 44.1038 39.2524 46.4054 36.9509C48.707 34.6493 50 31.5277 50 28.2727C50 25.0178 48.707 21.8962 46.4054 19.5946C44.1038 17.293 40.9822 16 37.7273 16C34.4723 16 31.3507 17.293 29.0491 19.5946C26.7476 21.8962 25.4545 25.0178 25.4545 28.2727C25.4545 31.5277 26.7476 34.6493 29.0491 36.9509C31.3507 39.2524 34.4723 40.5455 37.7273 40.5455ZM44.1473 25.1473L35.9655 33.3291C35.8388 33.4561 35.6883 33.5568 35.5226 33.6256C35.357 33.6943 35.1794 33.7297 35 33.7297C34.8206 33.7297 34.643 33.6943 34.4774 33.6256C34.3117 33.5568 34.1612 33.4561 34.0345 33.3291L31.3073 30.6018C31.1805 30.475 31.0799 30.3245 31.0113 30.1589C30.9427 29.9932 30.9074 29.8157 30.9074 29.6364C30.9074 29.4571 30.9427 29.2795 31.0113 29.1139C31.0799 28.9482 31.1805 28.7977 31.3073 28.6709C31.5633 28.4149 31.9106 28.271 32.2727 28.271C32.452 28.271 32.6296 28.3063 32.7952 28.3749C32.9609 28.4436 33.1114 28.5441 33.2382 28.6709L35 30.4355L42.2164 23.2164C42.4724 22.9603 42.8197 22.8165 43.1818 22.8165C43.5439 22.8165 43.8912 22.9603 44.1473 23.2164C44.4033 23.4724 44.5472 23.8197 44.5472 24.1818C44.5472 24.5439 44.4033 24.8912 44.1473 25.1473Z" fill="#545454"/>
</svg>
