<svg width="100" height="102" viewBox="0 0 100 102" fill="none" xmlns="http://www.w3.org/2000/svg">
<rect width="100" height="101.026" rx="50" fill="#EFF1F4"/>
<path d="M70 60.7692L59.7436 71.0256L52.5641 63.8462L55.641 60.7692L59.7436 64.8718L66.9231 57.6923L70 60.7692ZM34.1026 30C33.0145 30 31.971 30.4322 31.2016 31.2016C30.4322 31.971 30 33.0145 30 34.1026V66.9231C30 69.2 31.8256 71.0256 34.1026 71.0256H50.1231C49.3846 69.7538 48.8718 68.359 48.6256 66.9231H34.1026V34.1026H48.4615V44.359H58.718V52.7282C59.3949 52.6256 60.0923 52.5641 60.7692 52.5641C61.4667 52.5641 62.1436 52.6256 62.8205 52.7282V42.3077L50.5128 30M38.2051 50.5128V54.6154H54.6154V50.5128M38.2051 58.718V62.8205H48.4615V58.718H38.2051Z" fill="#AFB3B8"/>
</svg>
